<?xml version="1.0" encoding="UTF-8" standalone="no"?>
<!-- Created with Inkscape (http://www.inkscape.org/) -->

<svg
   xmlns:dc="http://purl.org/dc/elements/1.1/"
   xmlns:cc="http://creativecommons.org/ns#"
   xmlns:rdf="http://www.w3.org/1999/02/22-rdf-syntax-ns#"
   xmlns:svg="http://www.w3.org/2000/svg"
   xmlns="http://www.w3.org/2000/svg"
   xmlns:sodipodi="http://sodipodi.sourceforge.net/DTD/sodipodi-0.dtd"
   xmlns:inkscape="http://www.inkscape.org/namespaces/inkscape"
   width="744.09448819"
   height="1052.3622047"
   id="svg2"
   version="1.1"
   inkscape:version="0.48.3.1 r9886"
   sodipodi:docname="New document 1">
  <defs
     id="defs4" />
  <sodipodi:namedview
     id="base"
     pagecolor="#ffffff"
     bordercolor="#666666"
     borderopacity="1.0"
     inkscape:pageopacity="0.0"
     inkscape:pageshadow="2"
     inkscape:zoom="1"
     inkscape:cx="307.23245"
     inkscape:cy="627.76625"
     inkscape:document-units="px"
     inkscape:current-layer="layer2"
     showgrid="false"
     inkscape:window-width="1280"
     inkscape:window-height="761"
     inkscape:window-x="0"
     inkscape:window-y="0"
     inkscape:window-maximized="1" />
  <metadata
     id="metadata7">
    <rdf:RDF>
      <cc:Work
         rdf:about="">
        <dc:format>image/svg+xml</dc:format>
        <dc:type
           rdf:resource="http://purl.org/dc/dcmitype/StillImage" />
        <dc:title></dc:title>
      </cc:Work>
    </rdf:RDF>
  </metadata>
  <g
     inkscape:label="Layer 1"
     inkscape:groupmode="layer"
     id="layer1"
     sodipodi:insensitive="true">
    <path
       style="fill:#333333;fill-opacity:1"
       d="m 667.60788,597.19774 c -2.21623,-0.30225 -5.91791,-1.38424 -8.33483,-2.43623 -0.72382,-0.31501 -2.79656,-1.07734 -4.60609,-1.69403 -4.75068,-1.61902 -8.74461,-3.08534 -10.67895,-3.92066 -4.11973,-1.77909 -14.95904,-2.38175 -37.79467,-2.1013 -4.62811,0.0568 -9.45468,-0.16148 -12.72158,-0.57541 -2.89526,-0.36682 -6.92756,-0.88095 -8.96069,-1.14253 -4.06639,-0.52312 -8.05035,-1.76093 -9.29597,-2.88819 -1.07909,-0.97658 -3.54059,-0.56489 -7.34083,1.22776 -7.03407,3.31814 -14.65404,2.97106 -20.56711,-0.9367 -4.68405,-3.09556 -5.97647,-3.20606 -13.49523,-1.15376 -12.6181,3.44421 -26.17773,-0.1799 -27.78236,-7.42541 -0.38121,-1.72132 -0.39722,-1.73352 -0.84335,-0.63999 -0.74338,1.82208 -1.4514,2.1013 -5.81604,2.29388 -2.28892,0.10094 -6.43182,0.62037 -9.20644,1.15424 -10.63783,2.04686 -12.46127,2.31077 -21.71442,3.14267 -3.22567,0.28996 -5.9886,0.75391 -6.36079,1.06809 -3.31714,2.79984 -10.21213,3.60946 -16.74045,1.96561 -2.0317,-0.51158 -2.77239,-0.45732 -12.43145,0.91109 -1.93017,0.27342 -3.90421,0.73974 -4.38675,1.03619 -0.48255,0.29646 -2.16048,0.87446 -3.72874,1.2844 -5.37357,1.40472 -6.36229,1.75703 -7.32313,2.60955 -4.23914,3.76111 -13.69845,6.25028 -21.2353,5.58793 -6.50123,-0.57133 -15.39548,-2.79638 -16.80255,-4.20343 -0.32667,-0.32668 -1.16064,-0.73579 -1.85329,-0.90911 -2.24793,-0.5626 -5.17418,-2.01598 -6.65579,-3.30577 -3.30361,-2.87582 -9.20511,-5.26967 -10.15868,-4.1207 -1.24135,1.49576 -5.51781,1.22202 -9.88804,-0.63287 -2.26987,-0.96342 -5.81022,-2.64618 -6.79946,-3.23185 -0.60318,-0.35713 -2.44634,-1.19561 -4.0959,-1.86332 -1.64957,-0.66766 -3.91908,-1.86797 -5.04336,-2.66732 -1.20034,-0.8534 -2.58799,-1.45798 -3.36158,-1.46461 -0.72459,-0.006 -2.99537,-0.3959 -5.04617,-0.86607 -2.05081,-0.47013 -4.38238,-0.85989 -5.18128,-0.86608 -2.62075,-0.0202 -11.61228,-2.94632 -16.53315,-5.38018 -2.65398,-1.31269 -5.81244,-2.74847 -7.0188,-3.19066 -1.20636,-0.44218 -3.04801,-1.36603 -4.09258,-2.053 -1.04456,-0.68696 -2.52509,-1.54273 -3.29006,-1.9017 -1.56119,-0.73263 -3.24625,-1.75764 -7.09364,-4.31494 -1.44763,-0.96219 -3.40075,-1.86279 -4.34028,-2.00132 -1.83055,-0.26988 -2.07554,-0.55694 -2.92357,-3.42588 -0.30207,-1.02194 -0.91337,-2.18759 -1.35844,-2.59038 -0.44508,-0.40279 -0.80923,-1.06993 -0.80923,-1.48254 0,-0.41262 -0.37292,-1.2243 -0.82872,-1.80375 -1.08542,-1.3799 -1.97132,-3.5448 -2.66895,-6.52227 -0.31092,-1.32699 -0.711,-2.61011 -0.88908,-2.85138 -0.17808,-0.24128 -0.5596,-1.5244 -0.84783,-2.85139 -1.06492,-4.9029 -2.84824,-9.92604 -4.21833,-11.882 -0.77506,-1.10652 -1.53277,-2.40109 -1.68378,-2.87692 -0.15101,-0.47579 -1.42944,-2.038 -2.84095,-3.47159 -1.41151,-1.43364 -2.88476,-3.22672 -3.27388,-3.98471 -0.41396,-0.80633 -1.2671,-1.57318 -2.05626,-1.84831 -0.74182,-0.2586 -1.91336,-0.87222 -2.60344,-1.36358 -2.39962,-1.70868 -2.85223,-0.42108 -1.51263,4.30318 0.66104,2.33121 5.06868,7.52499 6.38599,7.52499 0.20251,0 0.3682,0.17811 0.3682,0.39573 0,0.86551 -7.2333,-1.90924 -8.27887,-3.17583 -0.33114,-0.40112 -1.04478,-0.7293 -1.58588,-0.7293 -1.31969,0 -2.96197,-1.35515 -5.18299,-4.27686 -1.67462,-2.20294 -2.56653,-3.7251 -4.62231,-7.88857 -1.10283,-2.23347 -1.48897,-0.99978 -0.94026,3.00414 1.19375,8.71073 -0.77561,11.6245 -2.89135,4.27792 -1.01736,-3.53265 -1.60643,-5.11561 -2.4271,-6.52218 -0.21116,-0.36191 -0.88582,-1.60218 -1.49924,-2.75616 -0.61341,-1.15397 -2.04635,-3.29282 -3.18431,-4.753 -1.13795,-1.46017 -2.2664,-2.99075 -2.50767,-3.40127 -0.24127,-0.41051 -0.95332,-1.29896 -1.58232,-1.97434 -1.21146,-1.30076 -3.23894,-5.39465 -3.6591,-7.38848 -0.42919,-2.03659 -1.25879,-1.21833 -4.09832,4.04226 -2.9541,5.47287 -5.68146,3.70378 -3.24945,-2.10774 2.4309,-5.80885 3.56328,-12.09182 3.84996,-21.36138 0.34336,-11.10195 0.55732,-13.57156 1.36331,-15.73559 0.89306,-2.39784 5.4875,-7.73353 6.65916,-7.73353 1.37996,0 2.6908,-1.29664 2.6908,-2.66171 0,-2.50957 1.76986,-5.20071 6.28233,-9.55255 5.55968,-5.3617 7.59714,-7.30648 9.95298,-9.50017 1.68036,-1.56466 3.24146,-3.6292 5.87162,-7.76499 0.45715,-0.71885 0.95433,-1.90911 1.10484,-2.64503 0.73589,-3.5981 4.24891,-2.74659 3.74765,0.90841 -0.25323,1.84647 -1.94825,7.44445 -2.79486,9.23038 -2.08644,4.40132 -3.02464,5.97401 -3.56382,5.97401 -0.89156,0 -1.06107,-2.13872 -0.22452,-2.83296 0.3741,-0.3105 0.68019,-1.10595 0.68019,-1.76773 0,-1.06519 -0.97684,-0.24145 -8.51688,7.18216 -8.9223,8.78456 -9.48939,9.49223 -9.88345,12.33349 -0.23052,1.66209 -0.3307,1.76194 -1.89807,1.89143 -1.32928,0.10985 -2.08935,0.58432 -3.86479,2.41272 -4.22555,4.35152 -5.20374,7.4466 -5.2517,16.61697 -0.0264,5.04977 -0.64881,11.17429 -1.99754,19.65634 -0.3139,1.97403 -0.3139,1.97403 1.54214,0.30259 2.40351,-2.16442 2.75141,-1.97807 3.59546,1.92596 0.93157,4.30885 1.6371,5.85483 3.98787,8.73833 2.5549,3.13389 6.93333,9.65467 6.93333,10.3258 0,0.2875 0.3662,0.99355 0.81379,1.56896 0.44759,0.57537 0.95004,1.78642 1.11657,2.69119 0.52552,2.85529 1.03627,1.78918 1.0508,-2.19338 0.008,-2.11112 0.2284,-4.39412 0.49046,-5.07332 0.26205,-0.6792 0.47645,-2.11038 0.47645,-3.1804 0,-1.07001 0.14806,-1.9392 0.32901,-1.93153 1.04178,0.0442 2.07395,1.57072 2.58042,3.8163 0.94255,4.17904 1.88382,7.2799 2.35192,7.74801 0.24279,0.24281 0.44143,0.6882 0.44143,0.98974 0,1.4461 4.51164,6.70336 6.28987,7.32939 0.7304,0.25711 0.77606,0.108 0.48433,-1.5816 -1.18175,-6.8443 -0.18195,-9.7711 2.53238,-7.41317 3.68221,3.19868 13.0083,6.47822 9.56766,3.36446 -0.47638,-0.43113 -0.9983,-1.20197 -1.15981,-1.71303 -0.16151,-0.51101 -0.76988,-1.55457 -1.35194,-2.31897 -2.33383,-3.06502 -3.83476,-10.67375 -2.10554,-10.67375 0.46142,0 0.66894,0.49149 0.69457,1.64503 0.0647,2.91166 0.23892,3.60762 1.15395,4.60973 0.49384,0.54089 1.15978,1.77299 1.47985,2.73808 0.32006,0.96508 0.81681,2.05081 1.10388,2.41271 0.28707,0.36191 0.59167,0.98378 0.6769,1.38192 0.38773,1.81133 7.65363,6.51424 10.06435,6.51424 1.23263,0 2.06291,1.14411 1.34863,1.85836 -0.40201,0.402 -3.47942,-0.0566 -5.99392,-0.89323 -7.22675,-2.40456 -7.29515,-2.37552 -3.58665,1.52233 1.56776,1.6478 3.26135,3.5187 3.76354,4.15759 1.3159,1.67407 5.74552,13.58002 5.74531,15.44229 -5e-5,0.44635 0.7597,2.42039 1.68833,4.38675 0.92863,1.96632 1.82471,4.13399 1.9913,4.817 0.76343,3.13013 3.77776,5.82153 3.77776,3.37307 0,-0.68925 -1.13744,-3.47462 -2.15327,-5.27292 -2.19768,-3.89044 -1.88514,-11.14288 0.60786,-14.10565 0.62656,-0.74465 1.41308,-2.00935 1.7478,-2.81046 2.0684,-4.95036 12.38074,-4.8213 20.85656,0.26106 2.85392,1.71131 2.85392,1.71131 4.76368,1.05334 1.05036,-0.3619 2.24988,-0.55001 2.66558,-0.4181 0.44092,0.13994 1.08553,-0.12441 1.54715,-0.6345 0.63204,-0.69841 0.66893,-0.91301 0.18327,-1.06629 -3.61826,-1.14191 -7.21916,-2.00632 -9.38156,-2.25215 -3.05634,-0.34744 -3.93957,-0.83581 -7.30475,-4.03911 -2.42587,-2.30918 -2.6056,-2.39275 -8.33483,-3.87556 -9.24426,-2.39262 -13.32097,-3.99107 -14.64938,-5.74401 -2.06169,-2.72049 1.52999,-4.1053 4.66548,-1.79884 0.62464,0.45952 1.80906,1.00782 2.63205,1.21851 0.82299,0.2107 2.68077,0.79738 4.1284,1.30379 1.44763,0.50641 4.50738,1.30808 6.79946,1.78146 2.29208,0.47342 5.47879,1.15622 7.08157,1.51733 2.93177,0.6606 7.27202,0.85428 8.96363,0.40003 1.69597,-0.45543 2.24434,-2.24452 2.54331,-8.29758 0.45117,-9.13476 1.04455,-12.2136 2.70278,-14.02397 4.76003,-5.19676 4.73674,-5.36 -1.68632,-11.81365 -6.4854,-6.51635 -6.55335,-6.68691 -6.17645,-15.50287 0.61144,-14.30178 -3.33026,-21.68885 -6.84916,-12.8359 -0.33566,0.84445 -1.16371,2.44552 -1.84012,3.55792 -0.67641,1.11239 -1.22983,2.23215 -1.22983,2.48838 0,0.71311 -4.49064,4.4819 -5.34035,4.4819 -1.2516,0 -1.39562,-0.88972 -0.36884,-2.27852 6.02969,-8.15559 3.97132,-12.16394 -3.41497,-6.65014 -5.46284,4.07797 -6.97472,9.70854 -4.81218,17.9215 1.31219,4.98349 1.82529,5.0417 6.32439,0.7175 1.72372,-1.65674 3.68536,-3.15057 4.35921,-3.31972 0.67385,-0.16911 1.73509,-0.6706 2.35832,-1.11436 2.78098,-1.98023 9.22925,-2.76103 9.22925,-1.11753 0,2.00663 -0.77221,2.68904 -3.64085,3.21764 -1.56687,0.28869 -3.41206,0.81865 -4.10043,1.17767 -0.68836,0.35901 -1.45907,0.65397 -1.71269,0.65546 -2.27401,0.0132 -9.08523,5.9387 -8.72289,7.58843 0.31223,1.42157 -0.74767,2.94246 -2.05058,2.94246 -2.13485,0 -8.31783,-7.966 -10.09895,-13.0112 -0.80519,-2.28085 -2.13558,-3.80248 -2.13558,-2.44259 0,1.34288 1.84947,6.51793 2.99436,8.37861 0.76582,1.24461 1.39239,2.38618 1.39239,2.53682 0,1.48079 9.79525,11.59186 12.39257,12.79212 2.45662,1.13525 2.68121,2.06471 0.59352,2.45636 -1.86841,0.35054 -4.74207,-0.74031 -9.76328,-3.7061 -2.02862,-1.19825 -3.79559,-2.1786 -3.92659,-2.1786 -0.131,0 -1.23013,-1.08532 -2.4425,-2.41188 -2.41943,-2.64723 -3.57829,-2.8731 -1.87679,-0.36581 0.59124,0.87125 1.07499,1.77019 1.07499,1.99764 0,0.81769 4.22179,6.31749 6.85889,8.93516 4.27026,4.23878 4.28371,7.10983 0.0196,4.1868 -1.00856,-0.69135 -2.89046,-1.79072 -4.182,-2.44298 -5.34646,-2.70027 -13.2247,-10.00263 -13.2247,-12.25803 0,-1.26168 0.73263,-0.77295 3.47028,2.31497 2.48177,2.79932 9.25386,8.37896 10.16964,8.37896 0.87936,0 0.29169,-1.20916 -1.599,-3.29006 -3.11287,-3.42601 -7.70546,-11.59055 -9.67887,-17.20677 -1.4709,-4.18606 0.86808,-4.10964 3.01208,0.0984 1.52761,2.99826 11.58625,12.50225 13.2319,12.50225 0.16152,0 0.71746,0.39481 1.23541,0.87735 0.51795,0.48254 1.10885,0.87735 1.31312,0.87735 0.53043,0 -0.48166,-1.76106 -1.16216,-2.02221 -0.70067,-0.26886 -6.70061,-7.60478 -8.30238,-10.15103 -0.64505,-1.0254 -1.36775,-1.86437 -1.60599,-1.86437 -0.23825,0 -0.44017,-0.74026 -0.44872,-1.64503 -0.009,-0.90477 -0.29766,-2.13854 -0.64247,-2.74172 -0.89367,-1.56331 -0.87704,-8.39352 0.0247,-10.13726 1.17807,-2.27813 3.5261,-1.70188 3.36589,0.82607 -0.22735,3.58749 2.75817,11.24026 6.14212,15.74406 1.77376,2.36073 3.73519,3.80862 2.43813,1.79975 -6.09972,-9.44705 -3.08816,-28.24275 4.55452,-28.42563 0.32065,-0.007 0.96617,-0.30378 1.43451,-0.65801 2.19683,-1.66157 7.26071,-0.81502 7.29948,1.2203 0.0355,1.86437 0.0355,1.86437 0.78111,0.27058 0.41008,-0.87656 0.97044,-1.86468 1.24525,-2.19583 0.89113,-1.07375 1.1402,-2.89105 0.45179,-3.29638 -1.72412,-1.01514 -1.95032,-3.06143 -0.26731,-2.41803 2.19693,0.83985 4.21208,1.38854 5.09962,1.38854 0.50759,0 1.678,0.76852 2.60091,1.70781 0.9229,0.93925 2.27022,1.82726 2.99404,1.97329 1.31602,0.26549 1.31602,0.26549 -0.3659,-1.15946 -0.92505,-0.78374 -3.00068,-2.70807 -4.61252,-4.27634 -1.61183,-1.56826 -5.09915,-4.62298 -7.7496,-6.78828 -5.89912,-4.81928 -5.72992,-4.65697 -6.11339,-5.86513 -0.35996,-1.13415 0.40684,-2.32208 1.2821,-1.98623 0.31986,0.12274 0.71188,0.0123 0.87117,-0.2454 0.18305,-0.29619 -0.24445,-0.46903 -1.16199,-0.46986 -2.21341,0 -11.1593,-1.60134 -14.61184,-2.6124 -6.30492,-1.84643 -15.03587,-1.48979 -19.66452,0.80326 -6.45746,3.19904 -5.09546,0.34765 1.47714,-3.09244 3.06473,-1.60411 10.73989,-1.99054 15.99401,-0.80528 1.20635,0.27211 2.98299,0.66797 3.94807,0.87967 0.96509,0.21171 3.13653,0.74316 4.82543,1.18101 5.06976,1.31431 12.10114,1.12222 15.01655,-0.4103 3.16507,-1.66372 3.62715,-1.59423 3.62715,0.54558 0,1.79629 -1.9766,3.8439 -4.4765,4.63737 -5.09477,1.617 -4.33142,2.89706 6.9771,11.7 1.15802,0.90143 2.6977,2.19039 3.42151,2.86428 1.59726,1.48715 6.53106,4.79661 7.57805,5.08319 0.41623,0.11393 1.47721,0.32831 2.35773,0.47641 1.75063,0.29439 2.82238,1.23175 2.32627,2.03448 -0.3173,0.51339 -4.30741,0.38349 -9.13704,-0.29742 -2.13909,-0.30163 -2.13909,-0.30163 -1.86456,1.4067 0.80595,5.01542 1.1511,10.55005 0.91355,14.64925 -0.33151,5.72042 -0.0745,6.37123 3.96745,10.04817 8.73562,7.9466 9.1905,8.64593 7.23815,11.12796 -0.48255,0.61344 -0.87735,1.35998 -0.87735,1.65902 0,0.299 -0.69092,1.38679 -1.53537,2.41732 -0.84445,1.03054 -1.53536,2.02234 -1.53536,2.20404 0,0.18165 -0.32158,0.68565 -0.71462,1.11994 -1.02105,1.12827 -1.437,3.71211 -1.68473,10.46565 -0.41678,11.36226 -0.98772,12.15139 -8.95446,12.37665 -6.42714,0.1817 -5.32956,1.45219 1.99356,2.30756 1.33169,0.15556 2.85989,0.4496 3.39603,0.65341 0.53612,0.20385 2.93636,0.60634 5.33386,0.89441 5.74693,0.69057 12.20705,2.75642 16.60027,5.30859 1.33542,0.77579 6.86306,3.01936 9.25391,3.75598 1.20636,0.37169 2.68689,0.94245 3.29007,1.26838 8.47659,4.58004 15.49773,6.69656 17.176,5.17773 0.94829,-0.85818 3.00306,-4.41114 3.00306,-5.19264 0,-0.29554 1.0391,-1.99795 2.3091,-3.78318 4.81458,-6.76771 4.87558,-7.00832 2.52925,-9.97666 -2.05921,-2.60507 -3.52234,-7.48761 -3.52234,-11.75417 0,-2.32621 -0.2015,-3.04537 -1.31603,-4.69676 -2.68838,-3.98344 0.72568,-12.57029 4.99784,-12.57029 2.06061,0 2.1603,-0.30799 1.37928,-4.26181 -0.37102,-1.87823 -0.9668,-6.17866 -1.32395,-9.55645 -0.35716,-3.3778 -0.75923,-6.90594 -0.89349,-7.84027 -0.52121,-3.6271 0.7013,-5.36114 3.28848,-4.66448 1.39901,0.37669 2.17854,0.33524 3.75419,-0.19968 3.04983,-1.03545 4.42913,-0.0933 3.63787,2.48483 -0.58256,1.89815 -0.13752,4.993 1.78497,12.41297 1.97849,7.63615 2.43399,8.26741 4.43123,6.14145 4.80697,-5.11679 9.23284,6.9098 8.31392,22.59178 -0.43573,7.43603 -4.8568,18.59421 -10.95011,27.63654 -2.73179,4.05393 -2.14878,4.81182 3.46682,4.50677 2.47126,-0.13423 4.93067,-0.0294 5.94666,0.25303 1.46926,0.40867 1.85985,0.36695 2.57028,-0.27457 1.81383,-1.63788 6.39903,-7.95765 8.1874,-11.2847 1.03752,-1.93017 2.55784,-4.29902 3.37848,-5.2641 5.66716,-6.66462 11.54486,-14.58214 11.55609,-15.56652 0.0142,-1.24536 3.55208,-3.86078 6.13387,-4.53463 1.32051,-0.34463 26.36104,-25.02397 30.01172,-29.57882 1.40199,-1.74922 2.70437,-3.1804 2.89418,-3.1804 0.1898,0 2.38836,-2.1148 4.88568,-4.69961 11.87168,-12.28751 15.95833,-15.47945 19.8185,-15.47945 0.69583,0 2.47022,-0.31229 3.94321,-0.69394 9.71714,-2.51799 23.11103,10.16911 23.11103,21.89148 0,1.34726 1.59866,7.79319 2.39003,9.6369 0.33243,0.77453 1.4307,3.97444 2.44057,7.11097 1.00988,3.13653 2.21145,6.53091 2.67018,7.54311 0.45872,1.01215 0.83405,1.9421 0.83405,2.06651 0,0.34502 6.28582,13.01848 9.15857,18.46559 4.25643,8.07066 5.31135,9.83326 9.05786,15.1343 1.10835,1.56826 2.64495,3.841 3.4146,5.05051 2.7075,4.25476 4.47308,6.34763 5.56683,6.59869 0.60318,0.13844 2.18241,0.64722 3.5094,1.13055 3.25791,1.1867 6.4309,2.26957 11.40556,3.89236 2.29208,0.74773 5.54924,1.82555 7.23814,2.39513 1.6889,0.56957 5.22304,1.67236 7.85365,2.45061 2.63056,0.77821 5.29551,1.68109 5.92211,2.00633 0.62656,0.32523 2.61973,0.91288 4.42926,1.3058 4.51783,0.9811 7.95406,2.15697 7.56338,2.58819 -0.17889,0.19749 -0.12669,0.24684 0.11594,0.10971 0.50983,-0.28812 3.93325,0.5004 9.86769,2.27277 4.19554,1.25308 10.21539,2.34648 17.10834,3.10745 2.0508,0.2264 6.19628,0.71504 9.21217,1.08581 3.01589,0.37081 7.3593,0.85616 9.652,1.07861 2.29269,0.22241 4.49966,0.5315 4.90438,0.68679 0.40473,0.15529 2.27954,-0.0153 4.16628,-0.37901 1.88674,-0.36371 4.71356,-0.78501 6.28184,-0.93618 3.85929,-0.37195 10.38248,-1.90846 12.37512,-2.91482 0.89516,-0.45214 1.80545,-0.82204 2.02295,-0.82204 0.21745,0 1.85388,-0.80711 3.63653,-1.79361 1.78264,-0.98653 4.22102,-2.18469 5.4186,-2.66262 1.19763,-0.47794 2.99681,-1.59547 3.99817,-2.48343 2.67404,-2.37122 3.69444,-3.10569 5.88795,-4.23809 1.08572,-0.56049 3.35585,-2.05124 5.04475,-3.31274 1.6889,-1.26154 3.95904,-2.67289 5.04476,-3.13635 1.08573,-0.46351 2.46755,-1.1045 3.07073,-1.42443 4.54445,-2.41065 9.18511,-1.77224 10.93117,1.5037 2.21912,4.16346 1.36748,6.31867 -3.55314,8.99209 -2.83424,1.5398 -3.60008,2.47088 -5.76266,7.00578 -4.16083,8.72525 -4.47702,9.2313 -8.70647,13.93342 -4.0309,4.48137 -5.46728,7.70581 -5.85195,13.13617 -0.88275,12.46285 -5.3049,16.40391 -16.66751,14.85425 z m 8.02863,-4.13851 c 2.75896,-1.4267 4.16255,-4.95725 4.91615,-12.3659 0.58383,-5.73954 2.75729,-10.17771 6.73369,-13.75015 1.83542,-1.64893 5.04266,-5.98309 5.35842,-7.24108 0.15016,-0.59831 0.54975,-1.31747 0.88797,-1.59818 0.33826,-0.28071 0.61497,-0.74526 0.61497,-1.03229 0,-0.28702 0.36884,-1.29922 0.81962,-2.24935 0.45079,-0.95008 1.15433,-2.44689 1.56344,-3.3263 1.25689,-2.70175 3.72198,-5.19554 6.23375,-6.30635 2.61735,-1.15753 3.10665,-2.4382 1.46772,-3.84148 -2.33024,-1.99522 -9.30298,0.61722 -16.92387,6.34075 -1.22824,0.92249 -2.38528,1.67723 -2.57115,1.67723 -0.18586,0 -1.25364,0.75132 -2.37284,1.66959 -2.3631,1.93886 -6.17931,4.47186 -6.7373,4.47186 -0.21149,0 -1.4253,0.66578 -2.69733,1.47948 -11.22078,7.17786 -31.67868,10.08865 -48.31206,6.87399 -2.41271,-0.46627 -5.76857,-1.02729 -7.45747,-1.24671 -6.70634,-0.87121 -16.44756,-2.80849 -20.3984,-4.0567 -4.60802,-1.45587 -6.55232,-1.99829 -14.18373,-3.95685 -2.85499,-0.73272 -6.50696,-1.79054 -8.11549,-2.35077 -1.60853,-0.56019 -3.91162,-1.32208 -5.11798,-1.69307 -1.20636,-0.37098 -4.16742,-1.39507 -6.58013,-2.27567 -2.41271,-0.88064 -4.88026,-1.77352 -5.48344,-1.98417 -0.60318,-0.21065 -3.36683,-1.19925 -6.14145,-2.19689 -8.4141,-3.02541 -8.56391,-2.95333 -3.83841,1.84735 6.46037,6.56311 16.88878,15.4183 20.22486,17.17374 0.52448,0.27597 1.61151,0.97303 2.41569,1.54901 0.80418,0.57598 2.87416,1.59366 4.59991,2.26155 1.72579,0.66788 4.58942,1.82519 6.36364,2.57182 1.77422,0.74667 3.46711,1.35752 3.76195,1.35752 3.20404,0 3.59108,6.26376 0.51645,8.35799 -2.76637,1.88424 -2.18794,2.234 5.10767,3.08819 1.86985,0.21894 5.02832,0.59032 7.0188,0.82537 1.99049,0.23499 10.82432,0.42332 19.63072,0.41845 16.57016,-0.009 22.6284,0.34212 26.75918,1.55168 2.48251,0.72689 3.35872,1.02448 13.81829,4.69304 3.3778,1.18473 6.73366,2.32997 7.45748,2.54501 0.72381,0.215 1.90823,0.58559 2.63205,0.82344 1.99351,0.65521 6.67694,0.59384 8.02863,-0.10515 z m -18.97104,-12.50755 c -0.49886,-0.80716 0.30949,-1.79431 1.46926,-1.79431 0.7636,0 1.71535,-0.53734 2.69478,-1.52142 0.83287,-0.83681 1.77431,-1.52773 2.09217,-1.53536 0.90192,-0.0219 0.16319,1.81059 -1.17529,2.91517 -0.63652,0.52527 -1.50277,1.26554 -1.925,1.64503 -0.83668,0.75198 -2.76133,0.92938 -3.15592,0.29089 z m -250.21792,9.40362 c 5.34503,-1.27865 7.74243,-2.42711 11.12704,-5.3303 2.97186,-2.54919 7.22482,-7.54004 7.23081,-8.48539 0.002,-0.36975 0.69325,-1.53904 1.53536,-2.5984 0.84211,-1.05936 1.5311,-2.17026 1.5311,-2.46869 0,-0.29839 0.29611,-0.7883 0.65802,-1.08866 0.3619,-0.30036 0.65801,-0.98101 0.65801,-1.51259 0,-0.53159 0.47979,-1.41728 1.06621,-1.96817 0.61583,-0.57856 1.19465,-1.76185 1.37026,-2.80133 0.16723,-0.98983 0.5264,-2.15872 0.79816,-2.59757 0.69118,-1.11621 -0.26248,-1.63341 -3.02735,-1.64183 -3.51884,-0.0105 -5.36175,-1.84485 -3.08043,-3.06577 0.92448,-0.49478 5.47901,-0.42705 8.2797,0.12313 0.43767,0.086 3.80563,-4.37008 3.80563,-5.03515 0,-0.20004 -0.85742,-0.36375 -1.90537,-0.36375 -4.30797,0 -11.69356,-3.93755 -11.69356,-6.23432 0,-1.3656 1.32892,-1.4418 3.69177,-0.21175 4.62998,2.4103 10.15965,3.42526 11.02581,2.02378 0.16214,-0.26237 -1.50071,-2.28102 -3.72208,-4.51853 -2.20833,-2.22439 -4.59192,-4.92268 -5.29687,-5.99625 -0.70494,-1.07357 -1.59784,-2.34674 -1.98422,-2.82928 -1.16762,-1.4582 -3.43794,-5.11846 -4.76169,-7.67682 -0.6866,-1.32699 -1.46597,-2.68241 -1.73192,-3.01203 -0.88183,-1.09291 -3.61424,-9.26175 -4.03377,-12.0594 -0.4828,-3.21948 -3.26372,-2.86521 -3.27492,0.41727 -8.8e-4,0.26404 -0.50521,1.05365 -1.12068,1.7547 -1.35343,1.54155 -5.02242,6.69739 -5.02242,7.05776 0,0.14173 -1.43997,1.85954 -3.19994,3.81739 -1.75998,1.95781 -3.97613,4.5467 -4.92478,5.75305 -0.94866,1.20636 -2.91389,3.48238 -4.3672,5.05784 -1.4533,1.57546 -3.42904,3.90263 -4.39051,5.17146 -1.83222,2.41793 -3.68373,3.06397 -3.37038,1.17604 0.422,-2.54247 0.30164,-2.99291 -0.88617,-3.31669 -2.78634,-0.75952 -3.62074,2.67684 -3.20203,13.1871 0.56885,14.27897 -0.19486,25.26506 -2.13466,30.70727 -1.41481,3.96931 -0.75539,5.27577 3.31468,6.56718 1.7607,0.5587 3.94169,1.3137 4.84665,1.67785 3.89201,1.56603 10.44405,1.69587 16.19174,0.32085 z m -27.69645,-3.98835 c 0.95765,-2.51879 -0.8793,-5.01621 -3.68966,-5.01621 -2.11619,0 0.70982,5.90992 2.92197,6.11062 0.18693,0.0171 0.53238,-0.47553 0.76769,-1.09441 z m 51.53348,-4.37789 c 5.09589,-1.15363 14.38308,-1.57107 17.82933,-0.80142 6.61392,1.47711 9.66263,0.007 7.15318,-3.44983 -3.02935,-4.17272 -3.9509,-8.8837 -3.45513,-17.66282 0.85852,-15.20246 0.55725,-20.39839 -1.1827,-20.39839 -0.8662,0 -1.13494,1.07186 -0.38496,1.53536 0.69446,0.4292 0.51017,1.85274 -0.27905,2.15561 -0.65073,0.24969 -0.64213,0.35892 0.0922,1.17038 0.98856,1.09235 0.33103,1.70145 -1.84829,1.71206 -2.32572,0.0114 -3.82944,1.56708 -1.89336,1.95886 4.25703,0.86147 4.11229,1.74501 -0.26326,1.60709 -3.60487,-0.11366 -5.21353,0.63441 -4.1416,1.926 0.50527,0.60884 1.06462,0.70329 2.89266,0.48842 1.71496,-0.20157 2.39761,-0.10809 2.80619,0.3842 0.66957,0.80681 0.32853,0.93916 -3.24046,1.25733 -3.59156,0.32023 -4.68939,1.55813 -1.59752,1.80137 1.69182,0.13305 2.04328,0.47276 1.35154,1.30625 -0.40065,0.48276 -1.04848,0.58519 -2.46911,0.3905 -1.85779,-0.25465 -3.2542,0.27027 -3.2542,1.22334 0,0.49939 1.79369,0.48566 2.59227,-0.0197 0.77034,-0.48768 1.79448,-0.12919 1.79448,0.62814 0,0.70951 -2.27991,1.53132 -4.24831,1.53132 -1.46917,0 -3.64784,1.06892 -3.64784,1.78971 0,0.79567 1.62396,1.21811 3.26227,0.84862 1.9933,-0.44956 2.87918,-0.18622 2.87918,0.8559 0,0.63915 -0.42605,0.77435 -2.53465,0.80426 -2.64343,0.0373 -4.92283,0.65898 -4.92283,1.34226 0,0.60967 1.79311,0.94359 3.55458,0.66192 2.18785,-0.3498 2.79287,0.95429 0.7056,1.52093 -0.77484,0.21035 -1.60619,0.26944 -1.84747,0.13138 -0.6228,-0.35646 -2.52653,-0.0603 -3.20811,0.49917 -1.02521,0.84143 0.59842,1.32471 2.33764,0.69583 1.20785,-0.43679 1.64077,-0.43964 2.06668,-0.0136 0.72544,0.72544 -0.0545,1.94702 -1.45706,2.28212 -0.86336,0.20627 -0.93556,0.32769 -0.39716,0.66797 0.76804,0.48544 1.68491,2.81867 1.41997,3.6135 -0.13392,0.40174 -0.92049,0.47193 -2.95408,0.2636 -3.37482,-0.34576 -5.74466,0.0465 -6.11521,1.01211 -0.56084,1.46154 4.31301,2.16798 5.45594,0.7908 0.62572,-0.75395 2.19338,-0.89007 2.19338,-0.19047 0,1.61595 -0.81263,1.99615 -4.46684,2.0898 -4.27047,0.10945 -6.06136,0.68188 -6.06136,1.93746 0,0.73079 0.20338,0.83423 1.20635,0.61353 0.6635,-0.14604 2.58819,-0.57831 4.27709,-0.96061 z M 371.899,581.27975 c 0.0825,-0.30159 0.38869,-1.82336 0.68037,-3.38171 0.29169,-1.55835 0.8174,-3.3885 1.16826,-4.06695 0.35085,-0.67846 0.7132,-1.9697 0.80522,-2.86942 0.092,-0.89968 0.3882,-2.21071 0.65819,-2.91338 1.03909,-2.70421 1.9016,-25.29949 0.98731,-25.86459 -0.39595,-0.2447 -2.58135,5.34183 -4.01093,10.25315 -0.52672,1.80954 -1.16154,3.88228 -1.41071,4.60609 -0.24916,0.72382 -1.12323,3.48747 -1.94235,6.14146 -0.81912,2.65398 -2.18256,6.19593 -3.02986,7.87101 -0.8473,1.67504 -1.54054,3.3907 -1.54054,3.81253 0,0.42179 -0.19741,0.88893 -0.43868,1.03804 -1.27103,0.78553 -0.30133,1.96956 3.1804,3.88337 3.85393,2.11841 4.65476,2.36231 4.89332,1.4904 z m 189.50569,-0.16043 c 1.95425,-0.38985 3.84928,-0.94789 4.21119,-1.24013 1.06291,-0.85822 8.30421,-2.83911 11.51408,-3.14969 4.95861,-0.47982 4.4351,-2.78116 -0.98587,-4.33376 -0.60318,-0.17275 -2.47852,-1.0154 -4.16742,-1.87257 -1.6889,-0.85713 -4.05774,-2.048 -5.2641,-2.64631 -2.18303,-1.08274 -4.86675,-2.88938 -5.70278,-3.83902 -0.24127,-0.27409 -1.65402,-1.41451 -3.13942,-2.53432 -2.6274,-1.98079 -6.38589,-5.27042 -11.79203,-10.32102 -3.89329,-3.63727 -11.06177,-12.76084 -14.82999,-18.87465 -0.68613,-1.11323 -1.59708,-2.4189 -2.02435,-2.90145 -0.42723,-0.48254 -1.34638,-1.83344 -2.04252,-3.00203 -0.69613,-1.16858 -1.70074,-2.84652 -2.2325,-3.72874 -0.53172,-0.88222 -2.18575,-3.9729 -3.67562,-6.86816 -1.48983,-2.89525 -2.95154,-5.56021 -3.24817,-5.92211 -0.29663,-0.36191 -0.75364,-1.29725 -1.01553,-2.07858 -0.26189,-0.78128 -1.07945,-2.29738 -1.81682,-3.36907 -0.73737,-1.07173 -1.34064,-2.08879 -1.34064,-2.26014 0,-0.17139 -0.37778,-1.12283 -0.83958,-2.11437 -3.32498,-7.13962 -3.98615,-8.65559 -3.98856,-9.14524 0,-0.30448 -0.32203,-1.14586 -0.71237,-1.86968 -0.39033,-0.72381 -1.16512,-2.99395 -1.7218,-5.04476 -0.55663,-2.05081 -1.32861,-4.81446 -1.71548,-6.14145 -0.38682,-1.327 -1.07594,-3.69584 -1.53137,-5.26411 -1.02387,-3.52594 -2.21509,-8.74994 -2.21356,-9.70748 0.0105,-6.60097 -9.82018,-15.13272 -16.9816,-14.73774 -8.43375,0.46517 -10.07667,1.5169 -22.49803,14.40241 -4.94606,5.13092 -16.01027,16.34934 -24.58713,24.92983 -17.56854,17.576 -17.2125,17.09219 -16.22873,22.05242 0.97794,4.93088 2.95482,10.22082 4.66829,12.49193 0.57946,0.76804 1.05403,1.55765 1.0546,1.75471 0.004,1.43394 11.35137,15.93123 12.46955,15.93123 0.84747,0 3.06371,-1.81572 7.8266,-6.41225 2.47071,-2.38442 5.62641,-5.31069 7.01267,-6.50283 2.7241,-2.3427 7.21344,-7.50972 10.49618,-12.08072 1.12972,-1.57305 2.53049,-3.45229 3.11284,-4.1761 2.60932,-3.24317 4.22904,-5.96225 4.48102,-7.52245 0.53979,-3.3427 0.6449,-3.55077 2.08112,-4.11916 2.15569,-0.85313 2.92329,-1.67929 4.53945,-4.88574 0.81186,-1.61064 1.66399,-3.04454 1.89363,-3.1865 0.22969,-0.14195 0.65437,-0.99561 0.94377,-1.897 0.28935,-0.90144 0.77189,-1.93504 1.07234,-2.29695 0.3004,-0.36191 0.87577,-1.67118 1.27865,-2.90947 0.86393,-2.65548 2.01023,-3.86964 3.27445,-3.46843 1.69271,0.53725 1.6914,4.60877 0,6.76608 -0.45171,0.57537 -0.82129,1.39017 -0.82129,1.81064 0,0.42047 -0.29611,1.01022 -0.65801,1.31058 -0.36191,0.30036 -0.65802,0.85187 -0.65802,1.22553 0,0.37371 -0.27728,0.9911 -0.61625,1.372 -0.33892,0.3809 -1.26044,1.97566 -2.04782,3.54392 -0.78742,1.56827 -2.08932,3.83578 -2.8932,5.03894 -0.80382,1.20311 -1.46153,2.45109 -1.46153,2.77326 0,2.95513 15.16562,21.61787 20.3873,25.08845 3.40061,2.26023 12.51334,12.25255 12.51334,13.72114 0,0.24474 0.66622,1.45246 1.48053,2.68377 4.30937,6.51652 4.49221,13.50984 0.55536,21.24605 -3.27409,6.43392 -2.85753,7.91098 3.00888,10.66885 3.55291,1.6703 10.69547,1.353 18.64369,-0.82813 5.56398,-1.5269 9.04979,-1.23211 12.94092,1.0944 0.72382,0.43276 2.29901,1.37007 3.50041,2.08288 1.2014,0.71284 3.07674,1.42179 4.16742,1.57546 1.09067,0.15366 2.16073,0.30575 2.37792,0.33799 0.21719,0.032 1.99382,-0.26035 3.94808,-0.65016 z M 521.0785,553.49244 c -1.6234,-1.62341 -2.40087,-3.11091 -2.40087,-4.59355 0,-1.50351 1.64753,-1.0011 2.82296,0.86086 0.76312,1.20886 1.66425,1.93307 3.07621,2.47233 2.12846,0.81286 2.52901,1.64389 1.14846,2.38271 -1.59187,0.85195 -3.0166,0.50785 -4.64676,-1.12235 z m -141.03767,25.73247 c 0.71836,-1.34231 0.56269,-1.61214 -1.24182,-2.1528 -2.42696,-0.72715 -2.92687,-0.64376 -3.48501,0.58124 -0.88598,1.94452 3.70953,3.47238 4.72683,1.57156 z m -20.70207,-0.13854 c 0.50869,-0.62493 3.57726,-8.57974 5.2035,-13.48926 0.5994,-1.80954 1.2491,-3.68487 1.44377,-4.16742 1.1304,-2.8019 2.2635,-6.10135 3.08832,-8.99284 0.51619,-1.80953 1.12555,-3.63284 1.35413,-4.05178 0.22858,-0.41898 0.4156,-1.11529 0.4156,-1.54742 0,-0.43214 0.2818,-1.18802 0.62621,-1.67974 0.58867,-0.84045 1.80515,-4.43641 3.54779,-10.4874 0.4169,-1.44763 1.12884,-3.15605 1.58207,-3.79647 0.45323,-0.64043 0.82406,-1.40771 0.82406,-1.70505 0,-0.49763 2.99738,-6.7967 3.95748,-8.31675 2.659,-4.20979 5.88506,-13.44571 6.35893,-18.20502 0.48798,-4.9011 -0.41222,-16.34044 -1.38883,-17.64852 -2.39149,-3.20312 -4.14886,-1.95829 -3.77691,2.67539 0.2046,2.54888 0.13696,2.86608 -0.70752,3.31805 -0.72081,0.38577 -0.93742,0.92135 -0.94987,2.34867 -0.0722,8.28495 -4.4359,10.70674 -10.11877,5.61583 -2.36735,-2.12073 -2.36735,-2.12073 -2.39477,-6.0138 -0.031,-4.39921 -0.62186,-5.09679 -2.68207,-3.16657 -2.52325,2.36406 -2.85541,4.83507 -0.91856,6.83337 1.41672,1.46171 1.41672,1.46171 1.68553,7.61825 0.26881,6.15659 0.26881,6.15659 2.97004,8.66397 3.62283,3.36289 3.77137,5.28126 0.73057,9.43555 -1.08386,1.48075 -2.51504,3.4433 -3.1804,4.36123 -1.46674,2.02356 -4.05562,6.97458 -6.58223,12.58796 -1.71481,3.80985 -2.69558,5.35381 -6.3363,9.97508 -2.09091,2.92785 -6.43263,8.81215 -6.49623,12.0365 -0.0475,2.41012 -0.6328,2.96948 -2.57371,2.27304 -1.25275,-0.44951 -1.28165,-0.62463 -0.76368,-4.6264 0.32293,-2.49492 0.32293,-2.49492 -0.98517,-2.00115 -1.20103,0.45333 -1.55342,0.33036 -4.30522,-1.50207 -1.64841,-1.0977 -3.49062,-2.24856 -4.0938,-2.55748 -1.12455,-0.57593 -10.67405,-6.76244 -14.81771,-9.59948 -1.2735,-0.87191 -2.65077,-1.78273 -3.06062,-2.02401 -0.40983,-0.24127 -0.96792,-0.71749 -1.24017,-1.0583 -0.49813,-0.62349 -1.07063,-0.50724 -2.48626,0.50492 -1.39025,0.99403 -3.51612,-1.70303 -6.8276,-8.66217 -1.8985,-3.98971 -10.19385,-9.22025 -15.38849,-9.70306 -7.19483,-0.66872 -14.43455,8.27315 -11.23289,13.87385 0.3448,0.60318 0.63392,1.50211 0.64246,1.99764 0.009,0.49557 0.70646,1.57063 1.55091,2.38911 0.84445,0.81848 1.53537,1.7086 1.53537,1.97803 0,0.70438 2.15554,2.61977 3.94807,3.50822 0.84445,0.41858 1.83147,0.99224 2.19338,1.27483 0.36191,0.2826 1.84244,0.88266 3.29006,1.33344 2.29346,0.71421 13.30143,5.68493 15.1343,6.83404 0.36191,0.22688 1.34892,0.78119 2.19337,1.23184 0.84445,0.45061 3.1146,1.73509 5.04477,2.85442 1.93017,1.11928 3.6435,2.03655 3.80739,2.03835 0.16389,0 1.44701,0.7639 2.85139,1.69359 1.40437,0.92968 4.13263,2.42206 6.0628,3.31647 1.93017,0.89437 3.80551,1.81063 4.16742,2.03611 2.18864,1.36362 13.02687,6.556 13.68454,6.556 0.43546,0 0.79174,0.17701 0.79174,0.39336 0,0.47369 7.5719,3.43071 9.43151,3.68325 2.45101,0.33283 2.74327,0.31102 3.1903,-0.2382 z m 116.56804,-2.23334 c 4.38048,-0.50399 6.66536,-0.88191 7.28964,-1.20565 0.3902,-0.20241 4.23958,-1.0619 8.55417,-1.91004 4.31454,-0.84809 8.67353,-1.76632 9.6866,-2.04045 1.29787,-0.35125 2.22584,-0.36463 3.14175,-0.0453 1.28694,0.44859 1.30712,0.43065 2.03616,-1.81366 0.40494,-1.24671 0.98114,-2.56287 1.2804,-2.92478 2.9443,-3.5605 4.56257,-12.39691 2.97251,-16.23098 -0.56743,-1.36827 -4.04595,-6.79122 -5.48892,-8.5571 -1.20562,-1.47549 -10.41859,-1.7061 -27.0596,-0.67736 -3.98098,0.24609 -10.53882,0.43525 -14.57303,0.42034 -9.00644,-0.0333 -8.04411,-0.97461 -8.43445,8.25034 -0.6428,15.19154 -0.0279,22.23429 2.10905,24.15758 3.47847,3.1306 8.08872,3.77335 18.48572,2.57708 z m -95.13197,-4.45685 c -0.32718,-0.85257 -2.81635,-1.28304 -3.6101,-0.62428 -1.28395,1.06559 -0.58706,2.7773 1.25134,3.07362 0.90744,0.14626 1.79576,0.4142 1.97404,0.59546 0.38039,0.38665 0.70763,-2.20329 0.38472,-3.0448 z m 52.69014,0.38191 c 1.57017,-0.42078 1.14521,-1.03953 -0.71397,-1.03953 -0.97682,0 -1.93348,0.28014 -2.24709,0.65801 -0.60121,0.72443 0.94039,0.92307 2.96106,0.38152 z m -51.39572,-3.88991 c 0.40204,-1.60182 -0.0356,-2.32936 -1.66335,-2.76523 -1.99011,-0.53286 -2.54301,-0.22688 -2.54301,1.4074 0,2.57239 3.60912,3.73743 4.20636,1.35783 z m -61.52919,-2.70355 c 0.308,-0.308 0.11395,-0.4407 -3.92007,-2.68031 -1.42139,-0.78913 -3.86747,-2.24983 -5.43573,-3.24598 -3.4758,-2.20776 -5.19603,-3.21347 -8.33483,-4.87276 -1.327,-0.70153 -2.68156,-1.49706 -3.01014,-1.76786 -0.32858,-0.27084 -1.80911,-0.52386 -3.29006,-0.56229 -2.70136,-0.0702 -5.22627,-0.95772 -7.95675,-2.79699 -0.72381,-0.48759 -1.6654,-0.88784 -2.09242,-0.88942 -0.42702,0 -1.55262,-0.49289 -2.50132,-1.09177 -1.98471,-1.2529 -2.79374,-0.74132 -1.19585,0.75618 1.74014,1.63082 3.04029,2.53506 5.34477,3.71716 1.20299,0.61709 2.88092,1.55989 3.72874,2.09507 1.63336,1.03106 10.43174,5.17203 14.48243,6.81614 1.32699,0.5386 3.66513,1.55194 5.19588,2.25189 1.53074,0.69995 3.99829,1.53699 5.48344,1.86003 1.48515,0.32308 2.81542,0.61292 2.95616,0.64406 0.14075,0.0312 0.38633,-0.0737 0.54575,-0.23315 z m 61.8377,-3.10876 c 0.2775,-1.45167 -0.24328,-1.84985 -2.43116,-1.8588 -2.47235,-0.0101 -2.2171,2.12073 0.329,2.74659 1.65498,0.40678 1.87221,0.31505 2.10216,-0.88779 z m -0.13484,-5.29113 c -0.0144,-2.52492 -2.47087,-3.24247 -3.09236,-0.90323 -0.38444,1.44697 -0.0506,1.99904 1.34438,2.22343 1.50036,0.24131 1.75577,0.0484 1.74798,-1.3202 z m -36.78539,-3.48352 c 2.00787,-7.22678 7.78568,-8.70652 10.35483,-13.30085 1.23129,-2.20189 0.79391,-2.80572 -2.04315,-3.30436 -0.86285,-0.15165 -4.27063,-1.63372 -7.57283,-3.29349 -3.30221,-1.65973 -7.84249,-3.68636 -10.08953,-4.50357 -3.81185,-1.38635 -8.44779,-3.3224 -10.03848,-4.19225 -5.64015,-3.08423 -9.78706,-3.85191 -10.87222,-2.01272 -1.07216,1.81716 -2.91484,2.82441 -5.79018,3.16495 -2.5201,0.29847 -2.50568,0.26961 -1.0731,2.1478 0.60317,0.7908 1.09668,1.65139 1.09668,1.9124 0,1.11972 11.25226,10.50601 13.57184,11.3212 0.37681,0.13244 1.62323,0.90156 2.76983,1.70925 1.1466,0.80765 2.19245,1.46847 2.32412,1.46847 0.13167,0 1.32144,0.69218 2.64395,1.53817 1.32251,0.84603 4.55736,2.61788 7.18857,3.93746 2.63121,1.31962 5.1423,2.89135 5.5802,3.49282 1.02439,1.40696 1.52427,1.44508 1.94947,-0.0853 z m 36.36563,-2.02962 c -0.60824,-2.69688 -2.33034,-3.57384 -2.74619,-1.39845 -0.24796,1.29712 0.0944,1.91021 1.46838,2.62938 1.42511,0.74592 1.67038,0.50969 1.27781,-1.23093 z m -0.36045,-7.2749 c 0.36077,-2.11336 -0.043,-2.74461 -1.62578,-2.54221 -0.69843,0.0893 -0.89156,0.47004 -0.94701,1.86687 -0.1344,3.38587 2.0138,3.94974 2.57279,0.67534 z m 0.48238,-6.18563 c 0.29159,-1.11502 -0.60747,-1.53624 -1.85455,-0.86884 -1.45179,0.77699 -1.08905,1.77304 0.64569,1.77304 0.6131,0 1.05978,-0.33409 1.20886,-0.9042 z m 95.27773,0.17911 c 0.48255,-0.12897 4.52933,-0.40902 8.99285,-0.62234 15.74594,-0.75251 15.51791,-0.66096 11.18621,-4.49138 -4.34678,-3.84376 -15.14399,-14.92992 -16.23098,-16.66536 -4.16105,-6.64338 -6.91962,-9.46227 -7.49104,-7.65475 -0.27926,0.88336 -1.58392,2.822 -3.16385,4.70128 -2.82968,3.36578 -4.74103,5.81065 -5.8414,7.47196 -1.47256,2.22325 -5.98411,7.34162 -9.60488,10.89678 -2.21845,2.17824 -2.34639,2.40889 -1.58898,2.86459 0.45305,0.27255 1.52002,1.23465 2.37104,2.13793 1.54731,1.6424 1.54731,1.6424 5.09838,1.39845 1.95309,-0.13415 4.7355,-0.0679 6.18312,0.14722 2.58231,0.38371 8.35878,0.27812 10.08953,-0.18438 z M 376.70099,496.39609 c 1.50782,-2.95605 2.63027,-9.7818 1.87055,-11.37498 -0.38976,-0.81729 -0.7111,-2.0222 -0.7141,-2.67749 -0.005,-1.11191 -1.20474,-5.74858 -2.80527,-10.84234 -0.37905,-1.20636 -0.69132,-2.73892 -0.69394,-3.4057 -0.003,-0.66675 -0.17893,-1.55506 -0.39182,-1.97404 -0.21289,-0.41894 -0.5631,-1.35393 -0.77824,-2.07774 -0.75942,-2.55494 -4.25748,-1.93461 -4.45566,0.79014 -0.32206,4.42794 1.40649,16.33328 3.00618,20.70494 0.44143,1.20636 1.01829,3.64754 1.28193,5.42488 0.26363,1.77729 0.67137,3.59029 0.9061,4.02888 0.23472,0.43859 0.42677,1.20522 0.42677,1.70364 0,1.36366 1.60339,1.15863 2.3475,-0.30019 z m -79.11567,2.90399 c -0.84445,-0.23939 -2.27562,-0.62818 -3.18039,-0.86401 -1.33926,-0.34906 -1.64503,-0.62946 -1.64503,-1.50852 0,-1.26211 -0.0997,-1.24904 3.29006,-0.43056 1.44763,0.34954 3.46173,0.64257 4.47578,0.65117 2.30937,0.0197 4.15515,0.82572 3.98142,1.73886 -0.15923,0.83691 -4.51077,1.09656 -6.92184,0.41306 z m -5.98496,-12.45074 c -0.50792,-1.32362 0.71305,-2.01589 3.31339,-1.87859 3.3187,0.17521 3.339,1.17228 0.0395,1.94206 -3.08614,0.72004 -3.05198,0.7207 -3.35291,-0.0635 z m 0.39185,-3.57034 c -0.82936,-0.34173 -0.65722,-1.37972 0.31511,-1.90007 0.70374,-0.37665 0.78716,-0.6628 0.45098,-1.54699 -0.22686,-0.59669 -0.33579,-1.33336 -0.24207,-1.63705 1.11886,-3.62565 0.51119,-3.77954 -3.0464,-0.7715 -2.96001,2.50277 -3.57486,2.65526 -4.18944,1.03874 -0.79365,-2.08744 0.75348,-3.81713 4.84745,-5.41944 0.84445,-0.3305 2.34663,-1.17152 3.33817,-1.86897 2.9261,-2.05822 7.57799,-0.89723 4.73491,1.1817 -0.84882,0.62064 -1.17236,6.94844 -0.45299,8.85953 0.43941,1.16736 -4.03649,2.77247 -5.75572,2.06405 z"
       id="path3232"
       inkscape:connector-curvature="0"
       sodipodi:nodetypes="scsssscsssssscsccscsccscccssccccccssscccsssssssscccccsssssssssssssssssssssssssssscssscssssssscscsscscscsssccsscsssscssssssssssscccscssscssccssssssssssssscsscscssssssscssssssscssssssssscsssssssscscscsssccsssssccssscsssscscccccssssssscssscssscssssssssssccsssssscsssscsssscscscssssscsscccccssccscccsccsscccscsssssssccscssscssssscsscscssscsscssscscsccscssccccsscsssscscccssssscsssscsccsssssssssccssscscscssscscsscscccscscssssscscsccccccccssssscccssssscssssscssccssccccsscsccsccsccscccsssssscssssscscccccccsssccsssscsssccscccsssccscssccssscscsssssssssssscssssscssscsssscsssscsscscccccscsssccscsccccccssssscsccccsscscssssscccccsssssscsssscsssssssssssssssccscccssscsssssscsscssssssscccccscssccsssssssscsscssssssccscsssscsc" />
    <path
       style="opacity:0.39490446;color:#000000;fill:none;stroke:#000000;stroke-width:0.5;marker:none;visibility:visible;display:inline;overflow:visible;enable-background:accumulate"
       d="m 675.86396,591.26692 -466.3549,0 0,-198.98978"
       id="path3252"
       inkscape:connector-curvature="0" />
    <path
       style="opacity:0.39490446;color:#000000;fill:none;stroke:#000000;stroke-width:0.5;stroke-linecap:round;stroke-linejoin:round;stroke-miterlimit:4;stroke-opacity:1;stroke-dasharray:none;stroke-dashoffset:0;marker:none;visibility:visible;display:inline;overflow:visible;enable-background:accumulate"
       d="m 336.61707,593.89675 c -67.59961,-92.70075 -176.0368,32.00669 0,0 z"
       id="path3254"
       inkscape:connector-curvature="0" />
  </g>
  <g
     inkscape:groupmode="layer"
     id="layer2"
     inkscape:label="2" />
</svg>
